<svg xmlns="http://www.w3.org/2000/svg" viewBox="0 0 323.51 165.54">
  <defs>
    <style>
      .cls-1, .cls-5 {
        fill: none;
      }

      .cls-1, .cls-3 {
        stroke: #0b123c;
      }

      .cls-1, .cls-3, .cls-4, .cls-5, .cls-6 {
        stroke-linecap: round;
        stroke-miterlimit: 10;
      }

      .cls-1, .cls-3, .cls-5, .cls-6 {
        stroke-width: 3px;
      }

      .cls-2, .cls-3 {
        fill: #0b123c;
      }

      .cls-4, .cls-6 {
        fill: #fff;
      }

      .cls-4, .cls-5, .cls-6 {
        stroke: #f55700;
      }

      .cls-4 {
        stroke-width: 2px;
      }
    </style>
  </defs>
  <title>Middel 6</title>
  <g id="Laag_2" data-name="Laag 2">
    <g id="Laag_1-2" data-name="Laag 1">
      <g>
        <polyline class="cls-1" points="1.5 24.79 1.5 1.5 322.01 1.5 322.01 164.04 1.5 164.04 1.5 140.52"/>
        <g>
          <path class="cls-2" d="M117.83,66.75a14.19,14.19,0,0,1-1,5.48A13.18,13.18,0,0,1,114,76.54a12.83,12.83,0,0,1-4.3,2.85,14.57,14.57,0,0,1-10.76,0,13,13,0,0,1-7.15-7.16,15.07,15.07,0,0,1,0-11A12.81,12.81,0,0,1,94.59,57a13,13,0,0,1,4.3-2.85,14.57,14.57,0,0,1,10.76,0A13,13,0,0,1,114,57a13.12,13.12,0,0,1,2.85,4.32A14.14,14.14,0,0,1,117.83,66.75Zm-2.87,0a12.54,12.54,0,0,0-.73-4.28,10.82,10.82,0,0,0-2.12-3.58,10.12,10.12,0,0,0-3.36-2.47,11.48,11.48,0,0,0-9,0,10.26,10.26,0,0,0-3.37,2.47,10.8,10.8,0,0,0-2.11,3.58,12.91,12.91,0,0,0,0,8.56,10.7,10.7,0,0,0,2.11,3.58,10.12,10.12,0,0,0,3.37,2.47,11.37,11.37,0,0,0,9,0,10,10,0,0,0,3.36-2.47A10.72,10.72,0,0,0,114.23,71,12.5,12.5,0,0,0,115,66.75Z"/>
          <path class="cls-2" d="M129.81,79.76h-2.65v-26h15.69v2.43h-13V65h12.12v2.43H129.81Z"/>
          <path class="cls-2" d="M154.28,79.76h-2.64v-26h15.69v2.43H154.28V65h12.13v2.43H154.28Z"/>
          <path class="cls-2" d="M178.76,79.76h-2.65v-26h2.65Z"/>
          <path class="cls-2" d="M211.28,75.64a9.87,9.87,0,0,1-1.64,1.88A10.37,10.37,0,0,1,207.42,79a12.58,12.58,0,0,1-5.77,1.38,13.79,13.79,0,0,1-5.38-1,13,13,0,0,1-7.15-7.16,15.07,15.07,0,0,1,0-11A12.81,12.81,0,0,1,192,57a13,13,0,0,1,4.3-2.85,13.79,13.79,0,0,1,5.38-1,13.09,13.09,0,0,1,4.85,1,9.69,9.69,0,0,1,4.15,3.16l-2.31,1.72a6.52,6.52,0,0,0-1.11-1.25,8.13,8.13,0,0,0-1.59-1.1,10.23,10.23,0,0,0-1.93-.77,7.32,7.32,0,0,0-2.06-.29,10.55,10.55,0,0,0-4.48.91,10.26,10.26,0,0,0-3.37,2.47,11,11,0,0,0-2.11,3.58,12.91,12.91,0,0,0,0,8.56,10.87,10.87,0,0,0,2.11,3.58,10.12,10.12,0,0,0,3.37,2.47,10.55,10.55,0,0,0,4.48.92,11.55,11.55,0,0,0,2-.19,8.56,8.56,0,0,0,2-.62,7.36,7.36,0,0,0,1.84-1.2,8.67,8.67,0,0,0,1.6-1.89Z"/>
          <path class="cls-2" d="M222.41,79.76h-2.64v-26h2.64Z"/>
          <path class="cls-2" d="M252.1,70.06a16.29,16.29,0,0,1-.38,3.43,9.28,9.28,0,0,1-1.45,3.37,8.28,8.28,0,0,1-2.92,2.55,11.77,11.77,0,0,1-9.54,0,8.21,8.21,0,0,1-2.9-2.55,9.13,9.13,0,0,1-1.46-3.37,17,17,0,0,1-.38-3.43V53.74h2.64v16a12.51,12.51,0,0,0,.37,3.22,7.86,7.86,0,0,0,1,2.26,5.14,5.14,0,0,0,1.36,1.45,7,7,0,0,0,1.5.83,6.49,6.49,0,0,0,1.45.38,8.29,8.29,0,0,0,1.22.1,8.47,8.47,0,0,0,1.19-.1,6.38,6.38,0,0,0,1.47-.38,7.32,7.32,0,0,0,1.51-.83,5.44,5.44,0,0,0,1.36-1.45,7.85,7.85,0,0,0,1-2.26,12.08,12.08,0,0,0,.37-3.22v-16h2.64Z"/>
          <path class="cls-2" d="M275.58,74.91l8.79-21.17h4v26h-2.65V57.27h-.07l-9.41,22.49h-1.39l-9.41-22.49h-.07V79.76h-2.65v-26h4Z"/>
        </g>
        <g>
          <path class="cls-2" d="M112.44,110h7.07v1.42H110.9V96.23h1.54Z"/>
          <path class="cls-2" d="M123.16,110h8.12v1.42h-9.67V96.23H131v1.42h-7.86v5.16h7.35v1.42h-7.35Z"/>
          <path class="cls-2" d="M145.53,99a5.51,5.51,0,0,0-1.84-1.29,6.7,6.7,0,0,0-5.1.07,5.78,5.78,0,0,0-2,1.43,6.18,6.18,0,0,0-1.23,2.09,7.48,7.48,0,0,0,0,5,6.18,6.18,0,0,0,1.23,2.09,5.78,5.78,0,0,0,2,1.43,6.1,6.1,0,0,0,2.62.54,8.92,8.92,0,0,0,2.26-.29,8,8,0,0,0,1.94-.78v-5.08h-3.63v-1.42H147v7.44a11.36,11.36,0,0,1-2.82,1.15,11.87,11.87,0,0,1-2.92.39,8.18,8.18,0,0,1-3.15-.6A7.53,7.53,0,0,1,133.9,107a8.28,8.28,0,0,1-.6-3.19,8.36,8.36,0,0,1,.6-3.2,7.56,7.56,0,0,1,4.16-4.17,8.18,8.18,0,0,1,3.15-.6,8.73,8.73,0,0,1,3.14.5,6.78,6.78,0,0,1,2.34,1.53Z"/>
          <path class="cls-2" d="M150.74,111.41h-1.8l6.61-15.18h1.5l6.6,15.18h-1.8l-1.67-4h-7.76ZM153,106h6.59l-3.28-8Z"/>
          <path class="cls-2" d="M167.25,110h7.07v1.42H165.7V96.23h1.55Z"/>
          <path class="cls-2" d="M189.56,98.74a3.32,3.32,0,0,0-2.94-1.48,4.18,4.18,0,0,0-1.17.16,3.22,3.22,0,0,0-1,.49,2.46,2.46,0,0,0-.74.86,2.54,2.54,0,0,0-.28,1.23,2.12,2.12,0,0,0,.58,1.6,4.43,4.43,0,0,0,1.43.93,15.83,15.83,0,0,0,1.88.66,8.44,8.44,0,0,1,1.87.77,4.51,4.51,0,0,1,1.44,1.27,3.58,3.58,0,0,1,.58,2.17,3.92,3.92,0,0,1-.44,1.85,4.34,4.34,0,0,1-1.16,1.39,5.39,5.39,0,0,1-1.61.85,5.56,5.56,0,0,1-1.79.3,6.76,6.76,0,0,1-2.64-.52,5.07,5.07,0,0,1-2.14-1.73l1.4-1a3.6,3.6,0,0,0,1.37,1.34,4.08,4.08,0,0,0,2.08.51,4,4,0,0,0,1.16-.18,3.55,3.55,0,0,0,1-.54,3.18,3.18,0,0,0,.76-.87,2.28,2.28,0,0,0,.3-1.18,2.38,2.38,0,0,0-.34-1.32,2.89,2.89,0,0,0-.87-.87,5.15,5.15,0,0,0-1.25-.59c-.46-.16-.94-.32-1.43-.47a15.32,15.32,0,0,1-1.44-.54,4.85,4.85,0,0,1-1.24-.76,3.4,3.4,0,0,1-.88-1.16,4.7,4.7,0,0,1,.08-3.65,3.79,3.79,0,0,1,1.12-1.35,4.67,4.67,0,0,1,1.57-.8,6.85,6.85,0,0,1,4.14.15,5,5,0,0,1,1.95,1.44Z"/>
          <path class="cls-2" d="M195.84,110H204v1.42H194.3V96.23h9.41v1.42h-7.87v5.16h7.35v1.42h-7.35Z"/>
          <path class="cls-2" d="M208.55,111.41H207V96.23h4.67a6,6,0,0,1,3.66,1,3.56,3.56,0,0,1,1.34,3,3.81,3.81,0,0,1-1,2.67,4.29,4.29,0,0,1-2.88,1.25l4.37,7.21h-1.89l-4.16-7h-2.57Zm0-8.47h2.75a6.28,6.28,0,0,0,1.74-.21,3.53,3.53,0,0,0,1.15-.57,2.09,2.09,0,0,0,.62-.84,2.89,2.89,0,0,0,0-2.06,2.09,2.09,0,0,0-.62-.84,3,3,0,0,0-1.15-.57,6.31,6.31,0,0,0-1.74-.2h-2.75Z"/>
          <path class="cls-2" d="M224.26,109.09h.05l5-12.86H231L225,111.41h-1.54l-5.76-15.18h1.71Z"/>
          <path class="cls-2" d="M234.49,111.41h-1.55V96.23h1.55Z"/>
          <path class="cls-2" d="M251.1,109a6,6,0,0,1-2.25,2,7.26,7.26,0,0,1-1.58.59,7.38,7.38,0,0,1-1.79.21,8.13,8.13,0,0,1-3.14-.6,7.51,7.51,0,0,1-4.17-4.18,8.28,8.28,0,0,1-.6-3.19,8.36,8.36,0,0,1,.6-3.2,7.53,7.53,0,0,1,4.17-4.17,8.13,8.13,0,0,1,3.14-.6,7.65,7.65,0,0,1,2.83.55,5.63,5.63,0,0,1,2.42,1.85l-1.35,1a3.76,3.76,0,0,0-.64-.73,4.92,4.92,0,0,0-.93-.64,6.65,6.65,0,0,0-1.13-.45,4.52,4.52,0,0,0-1.2-.17,6.09,6.09,0,0,0-2.61.54,5.78,5.78,0,0,0-2,1.43,6.37,6.37,0,0,0-1.24,2.09,7.65,7.65,0,0,0,0,5,6.37,6.37,0,0,0,1.24,2.09,5.78,5.78,0,0,0,2,1.43,6.09,6.09,0,0,0,2.61.54,6.75,6.75,0,0,0,1.19-.11,5,5,0,0,0,1.16-.36,4.29,4.29,0,0,0,1.07-.7,4.87,4.87,0,0,0,.93-1.1Z"/>
          <path class="cls-2" d="M255.23,110h8.13v1.42h-9.67V96.23h9.41v1.42h-7.87v5.16h7.36v1.42h-7.36Z"/>
          <path class="cls-2" d="M273.58,98.74a3.32,3.32,0,0,0-2.93-1.48,4.25,4.25,0,0,0-1.18.16,3.32,3.32,0,0,0-1,.49,2.46,2.46,0,0,0-.74.86,2.54,2.54,0,0,0-.28,1.23,2.12,2.12,0,0,0,.58,1.6,4.37,4.37,0,0,0,1.44.93,15.65,15.65,0,0,0,1.87.66,8.72,8.72,0,0,1,1.88.77,4.47,4.47,0,0,1,1.43,1.27,3.58,3.58,0,0,1,.58,2.17,3.92,3.92,0,0,1-.44,1.85,4.34,4.34,0,0,1-1.16,1.39,5.34,5.34,0,0,1-1.6.85,5.6,5.6,0,0,1-1.79.3,6.81,6.81,0,0,1-2.65-.52,5,5,0,0,1-2.13-1.73l1.39-1a3.67,3.67,0,0,0,1.37,1.34,4.08,4.08,0,0,0,2.08.51,3.9,3.9,0,0,0,1.16-.18,3.55,3.55,0,0,0,1-.54,3,3,0,0,0,.76-.87,2.28,2.28,0,0,0,.3-1.18,2.46,2.46,0,0,0-.33-1.32,2.92,2.92,0,0,0-.88-.87,5.15,5.15,0,0,0-1.25-.59c-.46-.16-.94-.32-1.43-.47s-1-.34-1.44-.54a4.85,4.85,0,0,1-1.24-.76,3.53,3.53,0,0,1-.88-1.16,4.64,4.64,0,0,1,.09-3.65,3.88,3.88,0,0,1,1.11-1.35,4.62,4.62,0,0,1,1.58-.8,6.36,6.36,0,0,1,1.8-.25,6.44,6.44,0,0,1,2.33.4,5,5,0,0,1,1.95,1.44Z"/>
        </g>
        <line class="cls-3" x1="46.28" y1="61" x2="46.28" y2="129.76"/>
        <line class="cls-3" x1="37.67" y1="61" x2="37.67" y2="117.99"/>
        <line class="cls-3" x1="28.48" y1="61" x2="28.48" y2="104.53"/>
        <line class="cls-3" x1="54.66" y1="61" x2="54.66" y2="117.99"/>
        <line class="cls-3" x1="63.04" y1="61" x2="63.04" y2="104.53"/>
        <g>
          <line class="cls-4" x1="85.08" y1="88.81" x2="300.07" y2="88.81"/>
          <rect class="cls-5" x="84" y="87.73" width="2.16" height="2.16" transform="translate(-37.88 86.17) rotate(-45)"/>
          <line class="cls-6" x1="21.92" y1="50.92" x2="69.24" y2="50.92"/>
          <line class="cls-6" x1="65.48" y1="55.92" x2="25.67" y2="55.92"/>
          <rect class="cls-5" x="298.99" y="87.73" width="2.16" height="2.16" transform="translate(25.09 238.19) rotate(-45)"/>
        </g>
      </g>
    </g>
  </g>
</svg>
